<?xml version="1.0" encoding="UTF-8" standalone="no"?>
<!-- Created with Inkscape (http://www.inkscape.org/) -->

<svg
   width="21.301394mm"
   height="13.229167mm"
   viewBox="0 0 21.301393 13.229168"
   version="1.1"
   id="svg842"
   inkscape:version="1.3.2 (091e20e, 2023-11-25, custom)"
   sodipodi:docname="no-logo-white-2.svg"
   xmlns:inkscape="http://www.inkscape.org/namespaces/inkscape"
   xmlns:sodipodi="http://sodipodi.sourceforge.net/DTD/sodipodi-0.dtd"
   xmlns="http://www.w3.org/2000/svg"
   xmlns:svg="http://www.w3.org/2000/svg">
  <sodipodi:namedview
     id="namedview844"
     pagecolor="#ffffff"
     bordercolor="#666666"
     borderopacity="1.0"
     inkscape:pageshadow="2"
     inkscape:pageopacity="0.0"
     inkscape:pagecheckerboard="0"
     inkscape:document-units="mm"
     showgrid="false"
     inkscape:zoom="2.9611953"
     inkscape:cx="49.810967"
     inkscape:cy="39.00452"
     inkscape:window-width="1920"
     inkscape:window-height="1017"
     inkscape:window-x="1912"
     inkscape:window-y="-8"
     inkscape:window-maximized="1"
     inkscape:current-layer="layer1"
     inkscape:showpageshadow="2"
     inkscape:deskcolor="#d1d1d1" />
  <defs
     id="defs839">
    <rect
       x="89.153191"
       y="110.76608"
       width="402.54016"
       height="199.91927"
       id="rect5650" />
  </defs>
  <g
     inkscape:label="Calque 1"
     inkscape:groupmode="layer"
     id="layer1"
     transform="translate(-53.254561,-15.877257)">
    <g
       id="g1"
       transform="matrix(0.52955695,0,0,0.52955695,25.053238,7.4693452)">
      <path
         d="m 53.254561,27.44451 v -7.325651 q 0,-1.926497 1.149284,-3.08405 1.157551,-1.157552 3.07578,-1.157552 1.909961,0 2.918685,1.12448 1.016992,1.124479 1.016992,3.232877 v 7.209896 h -3.356901 v -7.209896 q 0,-1.033529 -0.735872,-1.033529 -0.711068,0 -0.711068,1.033529 v 7.209896 z"
         style="font-size:64px;line-height:1.25;font-family:'Bauhaus 93';-inkscape-font-specification:'Bauhaus 93, ';white-space:pre;fill:#ffffff;stroke-width:0.264583"
         id="path949" />
      <path
         d="m 68.807099,15.877257 q 2.397786,0 4.10931,1.744597 1.719791,1.744596 1.719791,4.175455 0,2.472201 -1.72806,4.200261 -1.728059,1.72806 -4.20026,1.72806 -2.455664,0 -4.191992,-1.736328 -1.736328,-1.736329 -1.736328,-4.191993 0,-2.480468 1.744596,-4.20026 1.752865,-1.719792 4.282943,-1.719792 z m -0.09922,3.323828 q -1.033529,0 -1.761133,0.760678 -0.727604,0.760677 -0.727604,1.835546 0,1.07487 0.727604,1.835547 0.735873,0.760677 1.761133,0.760677 1.041797,0 1.761133,-0.752409 0.727604,-0.760677 0.727604,-1.843815 0,-1.083138 -0.727604,-1.835546 -0.719336,-0.760678 -1.761133,-0.760678 z"
         style="font-size:64px;line-height:1.25;font-family:'Bauhaus 93';-inkscape-font-specification:'Bauhaus 93, ';white-space:pre;fill:#ffffff;stroke-width:0.264583"
         id="path951" />
      <path
         d="m 53.254561,29.291579 h 3.356901 v 6.705534 q 0,0.785482 0.248047,1.050065 0.256315,0.256315 1.000456,0.256315 h 0.173632 v 3.274219 h -0.892968 q -1.835547,0 -2.860808,-1.066602 -1.02526,-1.074869 -1.02526,-2.976562 z"
         style="font-size:64px;line-height:1.25;font-family:'Bauhaus 93';-inkscape-font-specification:'Bauhaus 93, ';white-space:pre;fill:#ffffff;stroke-width:0.264583"
         id="path953" />
      <path
         d="m 64.515889,29.010459 q 2.397786,0 4.10931,1.744597 1.719791,1.744596 1.719791,4.175455 0,2.472201 -1.728059,4.200261 -1.72806,1.72806 -4.200261,1.72806 -2.455664,0 -4.191992,-1.736328 -1.736328,-1.736329 -1.736328,-4.191993 0,-2.480468 1.744596,-4.20026 1.752865,-1.719792 4.282943,-1.719792 z m -0.09922,3.323828 q -1.033528,0 -1.761133,0.760678 -0.727604,0.760677 -0.727604,1.835546 0,1.07487 0.727604,1.835547 0.735873,0.760677 1.761133,0.760677 1.041797,0 1.761133,-0.752409 0.727604,-0.760677 0.727604,-1.843815 0,-1.083138 -0.727604,-1.835546 -0.719336,-0.760678 -1.761133,-0.760678 z"
         style="font-size:64px;line-height:1.25;font-family:'Bauhaus 93';-inkscape-font-specification:'Bauhaus 93, ';white-space:pre;fill:#ffffff;stroke-width:0.264583"
         id="path955" />
      <path
         d="m 76.703256,34.252517 h 3.19981 q 1.03353,1.281575 1.03353,2.703711 0,1.653645 -1.21543,2.778124 -1.20717,1.12448 -2.97657,1.12448 -2.29856,0 -3.9026,-1.744597 -1.604037,-1.744596 -1.604037,-4.249869 0,-2.513542 1.628841,-4.183724 1.637106,-1.670183 4.084506,-1.670183 0.83509,0 1.85208,0.338998 v 3.356901 q -0.79375,-0.372071 -1.44694,-0.372071 -1.18235,0 -1.93476,0.735873 -0.74414,0.735872 -0.74414,1.909961 0,1.198893 0.69453,1.901692 0.69453,0.7028 1.87689,0.7028 0.7524,0 0.7524,-0.438216 0,-0.330729 -0.49609,-0.330729 h -0.80202 z"
         style="font-size:64px;line-height:1.25;font-family:'Bauhaus 93';-inkscape-font-specification:'Bauhaus 93, ';white-space:pre;fill:#ffffff;stroke-width:0.264583"
         id="path957" />
      <path
         d="m 87.650396,29.010459 q 2.39778,0 4.10931,1.744597 1.71979,1.744596 1.71979,4.175455 0,2.472201 -1.72806,4.200261 -1.72806,1.72806 -4.20026,1.72806 -2.45566,0 -4.19199,-1.736328 -1.73633,-1.736329 -1.73633,-4.191993 0,-2.480468 1.7446,-4.20026 1.75286,-1.719792 4.28294,-1.719792 z m -0.0992,3.323828 q -1.03353,0 -1.76113,0.760678 -0.72761,0.760677 -0.72761,1.835546 0,1.07487 0.72761,1.835547 0.73587,0.760677 1.76113,0.760677 1.0418,0 1.76113,-0.752409 0.72761,-0.760677 0.72761,-1.843815 0,-1.083138 -0.72761,-1.835546 -0.71933,-0.760678 -1.76113,-0.760678 z"
         style="font-size:64px;line-height:1.25;font-family:'Bauhaus 93';-inkscape-font-specification:'Bauhaus 93, ';white-space:pre;fill:#ffffff;stroke-width:0.264583"
         id="path959" />
    </g>
  </g>
</svg>
